<svg width="758" height="758" viewBox="0 0 758 758" fill="none" xmlns="http://www.w3.org/2000/svg">
<path d="M164.62 603.523C155.776 533.194 119.138 272.094 103.135 173.548C87.1316 75.0019 668.713 78.3713 655.238 173.548C641.762 268.725 603.439 528.561 593.753 603.523C584.067 678.484 173.464 673.851 164.62 603.523Z" fill="url(#paint0_linear_1629_88)"/>
<path d="M378.297 82.0056C449.962 82.2186 522.432 88.5352 576.681 101.13C603.592 107.378 627.485 115.494 644.659 126.104C661.248 136.352 677.254 152.846 673.949 176.195C660.427 271.694 622.163 531.113 612.494 605.942C610.129 624.247 596.126 636.469 582.226 644.361C567.739 652.585 548.825 658.782 528.012 663.47C486.149 672.899 432.1 677.194 378.767 676.9C325.42 676.606 271.486 671.713 229.816 662.151C209.103 657.398 190.351 651.256 176.034 643.311C162.559 635.833 148.151 623.997 145.873 605.88C137.051 535.722 100.444 274.851 84.4847 176.575C80.6695 153.079 95.9004 136.11 112.653 125.421C129.692 114.548 153.507 106.38 180.283 100.18C234.284 87.6757 306.646 81.7926 378.297 82.0056ZM378.184 119.797C308.125 119.588 238.932 125.39 188.809 136.996C163.522 142.851 144.632 149.846 132.982 157.279C121.045 164.896 121.602 169.379 121.787 170.519C137.834 269.336 174.503 530.664 183.369 601.165C183.301 600.63 183.661 604.322 194.372 610.266C204.24 615.742 219.093 620.916 238.269 625.316C276.376 634.06 327.357 638.826 378.976 639.111C430.61 639.396 481.582 635.189 519.707 626.602C538.888 622.282 553.713 617.092 563.569 611.496C574.011 605.568 574.959 601.535 575.015 601.1C584.718 526.006 623.1 265.752 636.53 170.897C636.594 170.448 637.364 166.017 624.798 158.254C612.809 150.847 593.6 143.855 568.134 137.943C517.627 126.217 448.228 120.005 378.184 119.797Z" fill="#1D43FB"/>
<path d="M665.767 172.282C665.767 219.032 537.178 256.93 378.555 256.93C219.933 256.93 91.3438 219.032 91.3438 172.282C91.3438 125.533 178.48 87.6348 378.555 87.6348C592.589 87.6348 665.767 125.533 665.767 172.282Z" fill="url(#paint1_radial_1629_88)"/>
<path d="M378.555 87.6348C592.589 87.6348 665.767 125.533 665.767 172.283L665.743 173.377C663.754 219.622 535.938 256.93 378.555 256.93V219.139C455.297 219.139 523.334 209.924 570.961 195.887C595.021 188.796 611.74 181.088 621.591 174.224C624.353 172.3 626.126 170.78 627.236 169.695C626.72 168.789 625.848 167.626 624.368 166.158C619.718 161.544 609.742 154.833 590.257 148.207C551.127 134.902 484.273 125.426 378.555 125.426C280.168 125.426 212.955 134.83 171.679 148.342C150.983 155.117 139.246 162.152 133.312 167.472C132.056 168.598 131.161 169.544 130.526 170.312C131.642 171.33 133.246 172.64 135.519 174.224C145.37 181.088 162.089 188.796 186.15 195.887C233.777 209.924 301.813 219.139 378.555 219.139V256.93L371.143 256.903C215.946 255.744 91.3444 218.301 91.3438 172.283C91.3438 125.533 178.48 87.6348 378.555 87.6348Z" fill="#1D43FB"/>
<path d="M259.513 480.663C237.184 457.234 231.823 442.885 227.391 416.418" stroke="#1D43FB" stroke-width="10"/>
<path d="M497.596 480.663C519.925 457.234 525.286 442.885 529.719 416.418" stroke="#1D43FB" stroke-width="10"/>
<path d="M63 352.172C63 326.083 84.1495 304.934 110.239 304.934H306.472C332.561 304.934 353.711 326.083 353.711 352.172V376.736C353.711 402.826 332.561 423.975 306.472 423.975H110.239C84.1494 423.975 63 402.826 63 376.736V352.172Z" fill="white"/>
<path d="M306.471 395.632V423.975H110.239V395.632H306.471ZM325.367 376.736V352.172C325.367 341.737 316.907 333.277 306.471 333.277H110.239C100.129 333.277 91.8733 341.216 91.3672 351.2L91.3432 352.172V376.736C91.3432 387.172 99.8031 395.632 110.239 395.632V423.975L109.019 423.96C83.8988 423.324 63.6514 403.076 63.0148 377.956L63 376.736V352.172C63 326.491 83.4935 305.595 109.019 304.948L110.239 304.934H306.471C332.561 304.934 353.71 326.083 353.71 352.172V376.736C353.71 402.826 332.561 423.975 306.471 423.975V395.632C316.907 395.632 325.367 387.172 325.367 376.736Z" fill="#1AE4EB"/>
<path d="M405.289 352.172C405.289 326.083 426.439 304.934 452.528 304.934H648.761C674.85 304.934 696 326.083 696 352.172V378.626C696 404.715 674.85 425.865 648.761 425.865H452.528C426.439 425.865 405.289 404.715 405.289 378.626V352.172Z" fill="white"/>
<path d="M648.76 397.522V425.865H452.528V397.522H648.76ZM667.656 378.626V352.172C667.656 341.737 659.196 333.277 648.76 333.277H452.528C442.092 333.277 433.632 341.737 433.632 352.172V378.626C433.632 389.062 442.092 397.522 452.528 397.522V425.865L451.308 425.85C425.783 425.203 405.289 404.307 405.289 378.626V352.172C405.289 326.491 425.783 305.595 451.308 304.948L452.528 304.934H648.76C674.85 304.934 695.999 326.083 695.999 352.172V378.626C695.999 404.715 674.85 425.865 648.76 425.865V397.522C659.196 397.522 667.656 389.062 667.656 378.626Z" fill="#1AE4EB"/>
<circle cx="277.464" cy="364.455" r="17.9507" fill="#1D43FB"/>
<circle cx="479.646" cy="364.455" r="17.9507" fill="#1D43FB"/>
<path d="M504.281 570.899V598.507C402.774 607.685 347.515 607.634 252.828 598.507V570.899C351.046 577.178 406.044 577.333 504.281 570.899ZM522.77 552.493V528.565C522.77 518.4 514.492 510.159 504.281 510.159H252.828C242.936 510.159 234.858 517.893 234.363 527.618L234.339 528.565V552.493C234.339 562.658 242.617 570.899 252.828 570.899V598.507L251.635 598.493C227.055 597.873 207.243 578.15 206.62 553.681L206.605 552.493V528.565C206.605 503.152 227.3 482.551 252.828 482.551H504.281C529.809 482.551 550.503 503.152 550.503 528.565V552.493C550.503 577.509 530.451 597.863 505.474 598.493L504.281 598.507V570.899C514.492 570.899 522.77 562.658 522.77 552.493Z" fill="#0067D8"/>
<path d="M162.201 447.594L159.367 423.975H120.631L124.41 447.594H162.201Z" fill="#1032D6"/>
<path d="M596.799 448.54L599.633 425.865H638.369L634.59 448.54H596.799Z" fill="#1032D6"/>
<path d="M202.826 516.563C202.826 490.474 223.976 469.324 250.065 469.324H507.044C533.133 469.324 554.282 490.474 554.282 516.563V541.127C554.282 567.216 533.133 588.366 507.044 588.366H250.065C223.976 588.366 202.826 567.216 202.826 541.127V516.563Z" fill="white"/>
<path d="M507.044 560.023V588.366C403.306 597.788 346.833 597.735 250.065 588.366V560.023C350.441 566.469 406.648 566.628 507.044 560.023ZM525.939 541.127V516.563C525.939 506.127 517.479 497.667 507.044 497.667H250.065C239.955 497.667 231.7 505.607 231.193 515.591L231.169 516.563V541.127C231.169 551.563 239.629 560.023 250.065 560.023V588.366L248.845 588.351C223.725 587.714 203.478 567.467 202.841 542.347L202.826 541.127V516.563C202.826 490.474 223.976 469.324 250.065 469.324H507.044C533.133 469.324 554.282 490.474 554.282 516.563V541.127C554.282 566.809 533.789 587.704 508.263 588.351L507.044 588.366V560.023C517.479 560.023 525.939 551.563 525.939 541.127Z" fill="#1AE4EB"/>
<path d="M507.044 560.023V588.366C403.306 597.788 346.833 597.735 250.065 588.366V560.023C350.441 566.469 406.648 566.628 507.044 560.023ZM525.939 541.127V516.563C525.939 506.127 517.479 497.667 507.044 497.667H250.065C239.955 497.667 231.7 505.607 231.193 515.591L231.169 516.563V541.127C231.169 551.563 239.629 560.023 250.065 560.023V588.366L248.845 588.351C223.725 587.714 203.478 567.467 202.841 542.347L202.826 541.127V516.563C202.826 490.474 223.976 469.324 250.065 469.324H507.044C533.133 469.324 554.282 490.474 554.282 516.563V541.127C554.282 566.809 533.789 587.704 508.263 588.351L507.044 588.366V560.023C517.479 560.023 525.939 551.563 525.939 541.127Z" fill="#1AE4EB"/>
<circle cx="379.5" cy="528.845" r="17.9507" fill="#1D43FB"/>
<defs>
<linearGradient id="paint0_linear_1629_88" x1="379.139" y1="100.896" x2="379.139" y2="658.02" gradientUnits="userSpaceOnUse">
<stop stop-color="#1DC3FB"/>
<stop offset="1" stop-color="#1D81FB"/>
</linearGradient>
<radialGradient id="paint1_radial_1629_88" cx="0" cy="0" r="1" gradientUnits="userSpaceOnUse" gradientTransform="translate(378.555 172.282) scale(287.212 84.6474)">
<stop stop-color="#81DEFD"/>
<stop offset="1" stop-color="#1D8BFB"/>
</radialGradient>
</defs>
</svg>
