<svg width="1653" height="668" viewBox="0 0 1653 668" fill="none" xmlns="http://www.w3.org/2000/svg">
<path d="M175.311 484.579C169.366 437.303 144.737 261.786 133.98 195.541C123.222 129.296 514.174 131.561 505.115 195.541C496.057 259.521 470.295 434.189 463.784 484.579C457.272 534.97 181.256 531.856 175.311 484.579Z" fill="url(#paint0_linear_1629_2)"/>
<path d="M318.95 134.004C367.125 134.147 415.84 138.393 452.308 146.86C470.398 151.059 486.459 156.515 498.004 163.647C509.156 170.537 519.915 181.624 517.693 197.32C508.604 261.516 482.882 435.903 476.382 486.205C474.792 498.51 465.379 506.726 456.035 512.031C446.297 517.56 433.583 521.725 419.592 524.877C391.45 531.215 355.117 534.102 319.266 533.905C283.405 533.707 247.149 530.418 219.138 523.99C205.214 520.795 192.608 516.666 182.984 511.325C173.926 506.298 164.241 498.342 162.709 486.163C156.779 439.002 132.171 263.639 121.443 197.576C118.878 181.781 129.117 170.374 140.378 163.188C151.833 155.88 167.841 150.388 185.841 146.221C222.141 137.815 270.784 133.861 318.95 134.004ZM318.874 159.408C271.779 159.268 225.266 163.168 191.572 170.97C174.574 174.906 161.875 179.608 154.044 184.604C146.02 189.725 146.394 192.738 146.518 193.504C157.305 259.931 181.955 435.602 187.915 482.994C187.87 482.634 188.112 485.116 195.312 489.112C201.945 492.793 211.93 496.271 224.82 499.229C250.437 505.107 284.707 508.311 319.406 508.502C354.116 508.693 388.38 505.866 414.009 500.093C426.902 497.189 436.868 493.7 443.493 489.939C450.513 485.954 451.15 483.243 451.188 482.95C457.711 432.471 483.512 257.522 492.54 193.759C492.583 193.457 493.101 190.478 484.653 185.259C476.594 180.28 463.682 175.58 446.562 171.606C412.611 163.724 365.959 159.548 318.874 159.408Z" fill="#1D43FB"/>
<path d="M512.192 194.689C512.192 226.115 425.752 251.591 319.123 251.591C212.493 251.591 126.053 226.115 126.053 194.689C126.053 163.263 184.628 137.787 319.123 137.787C463.001 137.787 512.192 163.263 512.192 194.689Z" fill="url(#paint1_radial_1629_2)"/>
<path d="M319.123 137.787C463.001 137.787 512.192 163.263 512.192 194.689L512.176 195.425C510.839 226.512 424.919 251.591 319.123 251.591V226.187C370.71 226.187 416.446 219.992 448.462 210.557C464.636 205.79 475.875 200.608 482.497 195.994C484.353 194.701 485.545 193.679 486.291 192.95C485.944 192.341 485.358 191.559 484.363 190.572C481.238 187.47 474.531 182.959 461.433 178.505C435.129 169.561 390.188 163.191 319.123 163.191C252.985 163.191 207.802 169.513 180.056 178.596C166.144 183.15 158.254 187.879 154.265 191.455C153.42 192.213 152.819 192.848 152.392 193.364C153.142 194.049 154.22 194.929 155.749 195.994C162.37 200.608 173.609 205.79 189.783 210.557C221.799 219.992 267.535 226.187 319.123 226.187V251.591L314.14 251.573C209.813 250.794 126.053 225.624 126.053 194.689C126.053 163.263 184.628 137.787 319.123 137.787Z" fill="#1D43FB"/>
<path d="M239.101 401.989C224.091 386.24 220.488 376.594 217.508 358.803" stroke="#1D43FB" stroke-width="8"/>
<path d="M399.145 401.989C414.155 386.24 417.759 376.594 420.738 358.803" stroke="#1D43FB" stroke-width="8"/>
<path d="M107 315.616C107 298.078 121.217 283.861 138.755 283.861H270.667C288.205 283.861 302.422 298.078 302.422 315.616V332.129C302.422 349.667 288.205 363.884 270.667 363.884H138.755C121.217 363.884 107 349.667 107 332.129V315.616Z" fill="white"/>
<path d="M270.667 344.831V363.884H138.755V344.831H270.667ZM283.369 332.129V315.616C283.369 308.601 277.682 302.914 270.667 302.914H138.755C131.959 302.914 126.409 308.251 126.069 314.963L126.053 315.616V332.129C126.053 339.144 131.74 344.831 138.755 344.831V363.884L137.935 363.874C121.049 363.446 107.438 349.835 107.01 332.949L107 332.129V315.616C107 298.353 120.776 284.306 137.935 283.871L138.755 283.861H270.667C288.205 283.861 302.422 298.078 302.422 315.616V332.129C302.422 349.667 288.205 363.884 270.667 363.884V344.831C277.682 344.831 283.369 339.144 283.369 332.129Z" fill="#1AE4EB"/>
<path d="M337.094 315.616C337.094 298.078 351.311 283.861 368.849 283.861H500.761C518.299 283.861 532.516 298.078 532.516 315.616V333.399C532.516 350.937 518.299 365.154 500.761 365.154H368.849C351.311 365.154 337.094 350.937 337.094 333.399V315.616Z" fill="white"/>
<path d="M500.761 346.101V365.154H368.849V346.101H500.761ZM513.462 333.399V315.616C513.462 308.601 507.776 302.914 500.761 302.914H368.849C361.834 302.914 356.147 308.601 356.147 315.616V333.399C356.147 340.414 361.834 346.101 368.849 346.101V365.154L368.029 365.144C350.87 364.709 337.094 350.663 337.094 333.399V315.616C337.094 298.353 350.87 284.306 368.029 283.871L368.849 283.861H500.761C518.298 283.861 532.515 298.078 532.515 315.616V333.399C532.515 350.937 518.298 365.154 500.761 365.154V346.101C507.776 346.101 513.462 340.414 513.462 333.399Z" fill="#1AE4EB"/>
<circle cx="251.168" cy="323.872" r="12.0669" fill="#1D43FB"/>
<circle cx="387.079" cy="323.872" r="12.0669" fill="#1D43FB"/>
<path d="M403.639 462.649V481.208C335.404 487.378 298.258 487.343 234.607 481.208V462.649C300.631 466.87 337.602 466.974 403.639 462.649ZM416.068 450.276V434.192C416.068 427.358 410.503 421.819 403.639 421.819H234.607C227.957 421.819 222.527 427.018 222.194 433.555L222.178 434.192V450.276C222.178 457.11 227.743 462.649 234.607 462.649V481.208L233.805 481.199C217.282 480.782 203.964 467.524 203.545 451.075L203.535 450.276V434.192C203.535 417.108 217.447 403.26 234.607 403.26H403.639C420.799 403.26 434.711 417.108 434.711 434.192V450.276C434.711 467.093 421.231 480.775 404.441 481.199L403.639 481.208V462.649C410.503 462.649 416.068 457.11 416.068 450.276Z" fill="#0067D8"/>
<path d="M173.686 379.76L171.78 363.883H145.741L148.282 379.76H173.686Z" fill="#1032D6"/>
<path d="M465.832 380.397L467.737 365.154H493.776L491.236 380.397H465.832Z" fill="#1032D6"/>
<path d="M200.994 426.122C200.994 408.584 215.211 394.367 232.749 394.367H405.496C423.033 394.367 437.251 408.584 437.251 426.122V442.635C437.251 460.172 423.033 474.39 405.496 474.39H232.749C215.211 474.39 200.994 460.172 200.994 442.635V426.122Z" fill="white"/>
<path d="M405.496 455.337V474.39C335.761 480.723 297.798 480.688 232.749 474.39V455.337C300.224 459.67 338.008 459.777 405.496 455.337ZM418.198 442.635V426.122C418.198 419.107 412.511 413.42 405.496 413.42H232.749C225.953 413.42 220.403 418.757 220.063 425.468L220.047 426.122V442.635C220.047 449.65 225.734 455.337 232.749 455.337V474.39L231.929 474.38C215.043 473.952 201.432 460.341 201.004 443.455L200.994 442.635V426.122C200.994 408.584 215.211 394.367 232.749 394.367H405.496C423.033 394.367 437.251 408.584 437.251 426.122V442.635C437.251 459.898 423.474 473.945 406.316 474.38L405.496 474.39V455.337C412.511 455.337 418.198 449.65 418.198 442.635Z" fill="#1AE4EB"/>
<path d="M405.496 455.337V474.39C335.761 480.723 297.798 480.688 232.749 474.39V455.337C300.224 459.67 338.008 459.777 405.496 455.337ZM418.198 442.635V426.122C418.198 419.107 412.511 413.42 405.496 413.42H232.749C225.953 413.42 220.403 418.757 220.063 425.468L220.047 426.122V442.635C220.047 449.65 225.734 455.337 232.749 455.337V474.39L231.929 474.38C215.043 473.952 201.432 460.341 201.004 443.455L200.994 442.635V426.122C200.994 408.584 215.211 394.367 232.749 394.367H405.496C423.033 394.367 437.251 408.584 437.251 426.122V442.635C437.251 459.898 423.474 473.945 406.316 474.38L405.496 474.39V455.337C412.511 455.337 418.198 449.65 418.198 442.635Z" fill="#1AE4EB"/>
<circle cx="319.758" cy="434.379" r="12.0669" fill="#1D43FB"/>
<defs>
<linearGradient id="paint0_linear_1629_2" x1="319.516" y1="146.703" x2="319.516" y2="521.214" gradientUnits="userSpaceOnUse">
<stop stop-color="#1DC3FB"/>
<stop offset="1" stop-color="#1D81FB"/>
</linearGradient>
<radialGradient id="paint1_radial_1629_2" cx="0" cy="0" r="1" gradientUnits="userSpaceOnUse" gradientTransform="translate(319.123 194.689) scale(193.07 56.9018)">
<stop stop-color="#81DEFD"/>
<stop offset="1" stop-color="#1D8BFB"/>
</radialGradient>
</defs>
</svg>
